<?xml version="1.0" encoding="UTF-8"?>
<svg version="1.1" xmlns="http://www.w3.org/2000/svg" width="512" height="512">
<path d="M0 0 C1.13795344 0.00138269 1.13795344 0.00138269 2.29889584 0.00279331 C3.16692837 0.00141865 4.0349609 0.00004398 4.92929745 -0.00137234 C5.88882824 0.00222294 6.84835903 0.00581821 7.83696651 0.00952244 C8.84173031 0.00937641 9.8464941 0.00923038 10.88170528 0.00907993 C14.22024817 0.00977953 17.55873604 0.01757409 20.89726925 0.02539158 C23.20512518 0.02725559 25.51298151 0.02867957 27.82083797 0.0296793 C33.90854126 0.03350578 39.99622086 0.04333718 46.08391476 0.05438328 C52.29057654 0.0645946 58.49724212 0.06917632 64.70390987 0.0742197 C76.89207302 0.08495933 89.08021234 0.10255718 101.268363 0.12304783 C101.268363 7.38304783 101.268363 14.64304783 101.268363 22.12304783 C107.10214991 22.08352041 107.10214991 22.08352041 112.93584347 22.03295994 C114.02469845 22.0292136 114.02469845 22.0292136 115.1355505 22.02539158 C116.25099239 22.01753635 116.25099239 22.01753635 117.38896847 22.00952244 C119.268363 22.12304783 119.268363 22.12304783 121.268363 23.12304783 C121.268363 28.73304783 121.268363 34.34304783 121.268363 40.12304783 C127.538363 40.12304783 133.808363 40.12304783 140.268363 40.12304783 C141.52084802 42.62801787 141.38210706 44.33158057 141.36601925 47.13086033 C141.36352169 48.01918552 141.36102413 48.90751072 141.35845089 49.82275486 C141.34934689 50.95310154 141.34024288 52.08344822 141.330863 53.24804783 C141.310238 56.83679783 141.289613 60.42554783 141.268363 64.12304783 C148.528363 64.12304783 155.788363 64.12304783 163.268363 64.12304783 C163.268363 69.73304783 163.268363 75.34304783 163.268363 81.12304783 C168.548363 81.12304783 173.828363 81.12304783 179.268363 81.12304783 C179.268363 75.51304783 179.268363 69.90304783 179.268363 64.12304783 C180.258363 63.79304783 181.248363 63.46304783 182.268363 63.12304783 C182.268363 62.79304783 182.268363 62.46304783 182.268363 62.12304783 C187.218363 62.12304783 192.168363 62.12304783 197.268363 62.12304783 C197.268363 55.52304783 197.268363 48.92304783 197.268363 42.12304783 C197.928363 41.79304783 198.588363 41.46304783 199.268363 41.12304783 C199.268363 40.79304783 199.268363 40.46304783 199.268363 40.12304783 C205.868363 40.12304783 212.468363 40.12304783 219.268363 40.12304783 C219.18931709 34.61821112 219.18931709 34.61821112 219.08818722 29.11377048 C219.07362562 27.11601305 219.16879574 25.11837566 219.268363 23.12304783 C219.928363 22.46304783 220.588363 21.80304783 221.268363 21.12304783 C221.268363 20.79304783 221.268363 20.46304783 221.268363 20.12304783 C226.878363 20.12304783 232.488363 20.12304783 238.268363 20.12304783 C238.268363 13.85304783 238.268363 7.58304783 238.268363 1.12304783 C240.55718971 -0.02136553 241.82427973 -0.00265336 244.36772823 -0.00393581 C245.22583096 -0.00675564 246.08393368 -0.00957546 246.96803951 -0.01248074 C248.38320354 -0.00944439 248.38320354 -0.00944439 249.82695675 -0.0063467 C251.31487225 -0.00897518 251.31487225 -0.00897518 252.83284664 -0.01165676 C256.1238697 -0.01607134 259.41483936 -0.01313865 262.705863 -0.00976467 C264.9850786 -0.01043782 267.26429413 -0.01140794 269.54350948 -0.01266384 C274.32517332 -0.01414028 279.10681851 -0.01198797 283.88848019 -0.00732327 C290.02909486 -0.00162602 296.16966583 -0.00490531 302.31027889 -0.01089573 C307.01816292 -0.01450278 311.72603652 -0.01336209 316.43392086 -0.01076794 C318.69863038 -0.01009907 320.96334084 -0.0109257 323.22804928 -0.01324749 C326.38864825 -0.01577636 329.54917564 -0.01193005 332.70976925 -0.0063467 C333.65321194 -0.00837093 334.59665462 -0.01039516 335.56868649 -0.01248074 C336.42678921 -0.00966091 337.28489193 -0.00684109 338.16899776 -0.00393581 C338.91673962 -0.00355879 339.66448147 -0.00318176 340.43488216 -0.00279331 C342.268363 0.12304783 342.268363 0.12304783 344.268363 1.12304783 C344.268363 7.39304783 344.268363 13.66304783 344.268363 20.12304783 C351.198363 20.12304783 358.128363 20.12304783 365.268363 20.12304783 C366.4166315 22.41958483 366.38397475 23.7061795 366.36601925 26.25586033 C366.36352169 26.98176365 366.36102413 27.70766697 366.35845089 28.45556736 C366.34479488 29.83784519 366.34479488 29.83784519 366.330863 31.24804783 C366.310238 34.17679783 366.289613 37.10554783 366.268363 40.12304783 C372.538363 40.12304783 378.808363 40.12304783 385.268363 40.12304783 C385.598363 40.78304783 385.928363 41.44304783 386.268363 42.12304783 C386.598363 42.12304783 386.928363 42.12304783 387.268363 42.12304783 C387.268363 48.72304783 387.268363 55.32304783 387.268363 62.12304783 C393.208363 62.12304783 399.148363 62.12304783 405.268363 62.12304783 C405.268363 96.11304783 405.268363 130.10304783 405.268363 165.12304783 C399.328363 165.12304783 393.388363 165.12304783 387.268363 165.12304783 C387.268363 178.65304783 387.268363 192.18304783 387.268363 206.12304783 C380.338363 206.12304783 373.408363 206.12304783 366.268363 206.12304783 C366.268363 212.39304783 366.268363 218.66304783 366.268363 225.12304783 C359.338363 225.45304783 352.408363 225.78304783 345.268363 226.12304783 C344.938363 232.72304783 344.608363 239.32304783 344.268363 246.12304783 C343.608363 246.45304783 342.948363 246.78304783 342.268363 247.12304783 C342.268363 247.45304783 342.268363 247.78304783 342.268363 248.12304783 C336.988363 248.12304783 331.708363 248.12304783 326.268363 248.12304783 C326.268363 254.72304783 326.268363 261.32304783 326.268363 268.12304783 C325.608363 268.45304783 324.948363 268.78304783 324.268363 269.12304783 C324.268363 269.45304783 324.268363 269.78304783 324.268363 270.12304783 C317.998363 270.12304783 311.728363 270.12304783 305.268363 270.12304783 C305.268363 275.73304783 305.268363 281.34304783 305.268363 287.12304783 C302.56120058 288.0254353 301.03059531 288.24156085 298.25664425 288.22070408 C297.23244381 288.21695774 297.23244381 288.21695774 296.18755245 288.21313572 C294.89724117 288.19947971 294.89724117 288.19947971 293.580863 288.18554783 C290.837738 288.16492283 288.094613 288.14429783 285.268363 288.12304783 C285.268363 294.39304783 285.268363 300.66304783 285.268363 307.12304783 C282.971826 308.27131633 281.68523133 308.23865958 279.1355505 308.22070408 C278.40964718 308.21820652 277.68374386 308.21570896 276.93584347 308.21313572 C275.55356564 308.19947971 275.55356564 308.19947971 274.143363 308.18554783 C271.214613 308.16492283 268.285863 308.14429783 265.268363 308.12304783 C265.268363 314.39304783 265.268363 320.66304783 265.268363 327.12304783 C257.678363 327.45304783 250.088363 327.78304783 242.268363 328.12304783 C241.938363 335.05304783 241.608363 341.98304783 241.268363 349.12304783 C235.658363 349.12304783 230.048363 349.12304783 224.268363 349.12304783 C224.268363 355.39304783 224.268363 361.66304783 224.268363 368.12304783 C221.86776483 369.32334691 220.3747565 369.23764526 217.6980505 369.22070408 C216.35420284 369.21587009 216.35420284 369.21587009 214.98320675 369.21093845 C214.04605831 369.20255955 213.10890987 369.19418064 212.143363 369.18554783 C211.19848019 369.18103611 210.25359737 369.17652439 209.28008175 369.17187595 C206.9428153 369.16007158 204.60558131 369.14213582 202.268363 369.12304783 C202.268363 375.39304783 202.268363 381.66304783 202.268363 388.12304783 C201.608363 388.45304783 200.948363 388.78304783 200.268363 389.12304783 C200.268363 389.45304783 200.268363 389.78304783 200.268363 390.12304783 C194.988363 390.12304783 189.708363 390.12304783 184.268363 390.12304783 C184.268363 396.72304783 184.268363 403.32304783 184.268363 410.12304783 C180.30998486 410.14991465 176.35178737 410.16982197 172.393363 410.18554783 C171.26543331 410.19392673 170.13750362 410.20230564 168.97539425 410.21093845 C167.89902706 410.21416111 166.82265987 410.21738377 165.7136755 410.22070408 C164.71868038 410.2259409 163.72368526 410.23117771 162.69853878 410.23657322 C160.268363 410.12304783 160.268363 410.12304783 158.268363 409.12304783 C158.268363 402.85304783 158.268363 396.58304783 158.268363 390.12304783 C152.328363 390.12304783 146.388363 390.12304783 140.268363 390.12304783 C140.268363 383.19304783 140.268363 376.26304783 140.268363 369.12304783 C138.70344112 369.13464939 137.13851925 369.14625095 135.5261755 369.15820408 C133.48190585 369.16758146 131.43763493 369.17668172 129.393363 369.18554783 C128.36082394 369.19392673 127.32828487 369.20230564 126.26445675 369.21093845 C125.27832394 369.21416111 124.29219112 369.21738377 123.2761755 369.22070408 C122.36496944 369.2259409 121.45376339 369.23117771 120.51494503 369.23657322 C118.268363 369.12304783 118.268363 369.12304783 116.268363 368.12304783 C116.268363 361.85304783 116.268363 355.58304783 116.268363 349.12304783 C111.46645308 349.24139904 111.46645308 349.24139904 106.6655798 349.3933115 C101.71484941 349.45497186 101.71484941 349.45497186 99.56328487 347.8554697 C97.98847803 345.74860142 97.91665664 344.71536305 97.97539425 342.11132908 C97.98288692 341.42852879 97.9903796 340.74572849 97.99809933 340.04223728 C98.03906734 338.751926 98.03906734 338.751926 98.080863 337.43554783 C98.142738 334.69242283 98.204613 331.94929783 98.268363 329.12304783 C91.998363 329.12304783 85.728363 329.12304783 79.268363 329.12304783 C79.268363 322.19304783 79.268363 315.26304783 79.268363 308.12304783 C72.77637778 308.1625853 72.77637778 308.1625853 66.28447628 308.21313572 C65.47736202 308.21563328 64.67024776 308.21813084 63.8386755 308.22070408 C62.59755001 308.2285593 62.59755001 308.2285593 61.33135128 308.23657322 C59.268363 308.12304783 59.268363 308.12304783 57.268363 307.12304783 C57.268363 300.85304783 57.268363 294.58304783 57.268363 288.12304783 C51.15052026 288.16253213 51.15052026 288.16253213 45.0327673 288.21313572 C44.26875607 288.21563328 43.50474483 288.21813084 42.71758175 288.22070408 C41.54715328 288.2285593 41.54715328 288.2285593 40.3530798 288.23657322 C38.268363 288.12304783 38.268363 288.12304783 35.268363 287.12304783 C35.268363 281.51304783 35.268363 275.90304783 35.268363 270.12304783 C29.658363 270.12304783 24.048363 270.12304783 18.268363 270.12304783 C18.268363 262.86304783 18.268363 255.60304783 18.268363 248.12304783 C11.668363 248.12304783 5.068363 248.12304783 -1.731637 248.12304783 C-2.87818182 245.8299582 -2.92892817 244.32395127 -3.04804325 241.77148533 C-3.11088505 240.49531345 -3.11088505 240.49531345 -3.17499638 239.19336033 C-3.21431278 238.3039072 -3.25362919 237.41445408 -3.294137 236.49804783 C-3.33732059 235.60086033 -3.38050419 234.70367283 -3.42499638 233.77929783 C-3.53120561 231.560705 -3.63324895 229.34199903 -3.731637 227.12304783 C-4.57142094 227.1466135 -4.57142094 227.1466135 -5.4281702 227.17065525 C-7.9667229 227.23304631 -10.50511429 227.27205001 -13.044137 227.31054783 C-13.92521122 227.33568455 -14.80628544 227.36082127 -15.71405888 227.3867197 C-16.98539677 227.40122166 -16.98539677 227.40122166 -18.28241825 227.41601658 C-19.45284672 227.43958225 -19.45284672 227.43958225 -20.6469202 227.463624 C-22.731637 227.12304783 -22.731637 227.12304783 -24.49140263 225.86914158 C-26.03171482 223.70057607 -26.08078887 222.53318577 -26.02460575 219.89257908 C-26.01336674 218.80747044 -26.01336674 218.80747044 -26.00190067 217.70044041 C-25.97458866 216.78802586 -25.94727665 215.87561131 -25.919137 214.93554783 C-25.857262 212.02742283 -25.795387 209.11929783 -25.731637 206.12304783 C-32.331637 206.12304783 -38.931637 206.12304783 -45.731637 206.12304783 C-45.731637 192.59304783 -45.731637 179.06304783 -45.731637 165.12304783 C-52.001637 165.12304783 -58.271637 165.12304783 -64.731637 165.12304783 C-64.731637 131.79304783 -64.731637 98.46304783 -64.731637 64.12304783 C-58.131637 64.12304783 -51.531637 64.12304783 -44.731637 64.12304783 C-44.401637 56.20304783 -44.071637 48.28304783 -43.731637 40.12304783 C-37.791637 40.12304783 -31.851637 40.12304783 -25.731637 40.12304783 C-25.85005036 34.66299915 -25.85005036 34.66299915 -26.00190067 29.20385838 C-26.00939335 28.52105808 -26.01688602 27.83825779 -26.02460575 27.13476658 C-26.0403162 26.43827 -26.05602665 25.74177341 -26.07221317 25.02417088 C-25.61535879 22.47397371 -24.82132165 21.62827018 -22.731637 20.12304783 C-20.6469202 19.78247166 -20.6469202 19.78247166 -18.28241825 19.83007908 C-17.43485966 19.83974705 -16.58730106 19.84941502 -15.71405888 19.85937595 C-14.39244755 19.89708103 -14.39244755 19.89708103 -13.044137 19.93554783 C-12.15146122 19.94908298 -11.25878544 19.96261814 -10.33905888 19.97656345 C-8.13597534 20.01190704 -5.93411118 20.0612429 -3.731637 20.12304783 C-3.69405277 19.26755344 -3.69405277 19.26755344 -3.65570927 18.39477634 C-3.54007151 15.82478626 -3.41720076 13.25519255 -3.294137 10.68554783 C-3.25482059 9.7877158 -3.21550419 8.88988377 -3.17499638 7.9648447 C-3.11215458 6.68383884 -3.11215458 6.68383884 -3.04804325 5.37695408 C-3.01138554 4.5861948 -2.97472782 3.79543552 -2.93695927 2.98071384 C-2.66902883 0.55659646 -2.44587762 0.17380082 0 0 Z M163.268363 82.12304783 C163.268363 82.45304783 163.268363 82.78304783 163.268363 83.12304783 C168.548363 83.12304783 173.828363 83.12304783 179.268363 83.12304783 C179.268363 82.79304783 179.268363 82.46304783 179.268363 82.12304783 C173.988363 82.12304783 168.708363 82.12304783 163.268363 82.12304783 Z " fill="#34BDFD" transform="translate(85.7316370010376,50.876952171325684)"/>
<path d="M0 0 C6.6 0 13.2 0 20 0 C20 14.19 20 28.38 20 43 C60.26 43 100.52 43 142 43 C142 49.6 142 56.2 142 63 C148.93 63 155.86 63 163 63 C163 56.07 163 49.14 163 42 C229.99 42.33 296.98 42.66 366 43 C366 69.4 366 95.8 366 123 C359.73 123 353.46 123 347 123 C347.01160156 125.87589844 347.02320313 128.75179687 347.03515625 131.71484375 C347.04294625 134.48819875 347.04902333 137.26155254 347.05493164 140.03491211 C347.05997256 141.96818585 347.06680519 143.90145576 347.07543945 145.8347168 C347.08751565 148.60726872 347.09323057 151.37977041 347.09765625 154.15234375 C347.10281754 155.02213364 347.10797882 155.89192352 347.11329651 156.78807068 C347.11349185 158.85905814 347.06208168 160.92994324 347 163 C346 164 346 164 343.77514648 164.11352539 C342.81680908 164.10828857 341.85847168 164.10305176 340.87109375 164.09765625 C339.31938477 164.09282227 339.31938477 164.09282227 337.73632812 164.08789062 C336.64771484 164.07951172 335.55910156 164.07113281 334.4375 164.0625 C332.7987793 164.05573242 332.7987793 164.05573242 331.12695312 164.04882812 C328.41794568 164.0369984 325.7089662 164.01906231 323 164 C323 169.94 323 175.88 323 182 C317.06 182 311.12 182 305 182 C305 187.61 305 193.22 305 199 C204.35 199 103.7 199 0 199 C0 193.39 0 187.78 0 182 C-6.6 182 -13.2 182 -20 182 C-20 176.06 -20 170.12 -20 164 C-26.93 164 -33.86 164 -41 164 C-41 150.47 -41 136.94 -41 123 C-47.6 123 -54.2 123 -61 123 C-61 96.6 -61 70.2 -61 43 C-47.47 43 -33.94 43 -20 43 C-20 35.41 -20 27.82 -20 20 C-13.4 20 -6.8 20 0 20 C0 13.4 0 6.8 0 0 Z " fill="#FD9FC6" transform="translate(104,93)"/>
<path d="M0 0 C140.91 0 281.82 0 427 0 C427 0.66 427 1.32 427 2 C420.73 2 414.46 2 408 2 C408.01160156 4.87589844 408.02320313 7.75179687 408.03515625 10.71484375 C408.04294625 13.48819875 408.04902333 16.26155254 408.05493164 19.03491211 C408.05997256 20.96818585 408.06680519 22.90145576 408.07543945 24.8347168 C408.08751565 27.60726872 408.09323057 30.37977041 408.09765625 33.15234375 C408.10281754 34.02213364 408.10797882 34.89192352 408.11329651 35.78807068 C408.11349185 37.85905814 408.06208168 39.92994324 408 42 C407 43 407 43 404.77514648 43.11352539 C403.81680908 43.10828857 402.85847168 43.10305176 401.87109375 43.09765625 C400.31938477 43.09282227 400.31938477 43.09282227 398.73632812 43.08789062 C397.64771484 43.07951172 396.55910156 43.07113281 395.4375 43.0625 C393.7987793 43.05573242 393.7987793 43.05573242 392.12695312 43.04882812 C389.41794568 43.0369984 386.7089662 43.01906231 384 43 C384 48.94 384 54.88 384 61 C378.06 61 372.12 61 366 61 C366 66.61 366 72.22 366 78 C265.35 78 164.7 78 61 78 C61 72.39 61 66.78 61 61 C54.4 61 47.8 61 41 61 C41 55.06 41 49.12 41 43 C34.07 43 27.14 43 20 43 C20 29.47 20 15.94 20 2 C13.4 2 6.8 2 0 2 C0 1.34 0 0.68 0 0 Z " fill="#F9F9F9" transform="translate(43,214)"/>
<path d="M0 0 C0.33 0 0.66 0 1 0 C1 15.18 1 30.36 1 46 C-5.27 46 -11.54 46 -18 46 C-18 51.61 -18 57.22 -18 63 C-20.70716242 63.90238747 -22.23776768 64.11851302 -25.01171875 64.09765625 C-26.03591919 64.09390991 -26.03591919 64.09390991 -27.08081055 64.09008789 C-27.94101807 64.08098389 -28.80122559 64.07187988 -29.6875 64.0625 C-32.430625 64.041875 -35.17375 64.02125 -38 64 C-38 70.27 -38 76.54 -38 83 C-40.296537 84.1482685 -41.58313167 84.11561175 -44.1328125 84.09765625 C-44.85871582 84.09515869 -45.58461914 84.09266113 -46.33251953 84.09008789 C-47.25403809 84.08098389 -48.17555664 84.07187988 -49.125 84.0625 C-52.05375 84.041875 -54.9825 84.02125 -58 84 C-58 90.27 -58 96.54 -58 103 C-69.385 103.495 -69.385 103.495 -81 104 C-81.33 110.93 -81.66 117.86 -82 125 C-87.61 125 -93.22 125 -99 125 C-99 131.27 -99 137.54 -99 144 C-101.40059817 145.20029908 -102.89360649 145.11459743 -105.5703125 145.09765625 C-106.46621094 145.09443359 -107.36210937 145.09121094 -108.28515625 145.08789062 C-109.22230469 145.07951172 -110.15945313 145.07113281 -111.125 145.0625 C-112.06988281 145.05798828 -113.01476562 145.05347656 -113.98828125 145.04882812 C-116.3255477 145.03702375 -118.66278169 145.01908799 -121 145 C-121 151.27 -121 157.54 -121 164 C-121.66 164.33 -122.32 164.66 -123 165 C-123 165.33 -123 165.66 -123 166 C-128.28 166 -133.56 166 -139 166 C-139 172.6 -139 179.2 -139 186 C-142.95837814 186.02686682 -146.91657562 186.04677414 -150.875 186.0625 C-152.00292969 186.07087891 -153.13085938 186.07925781 -154.29296875 186.08789062 C-155.36933594 186.09111328 -156.44570312 186.09433594 -157.5546875 186.09765625 C-159.04718018 186.10551147 -159.04718018 186.10551147 -160.56982422 186.11352539 C-163 186 -163 186 -165 185 C-165 178.73 -165 172.46 -165 166 C-170.94 166 -176.88 166 -183 166 C-183 159.07 -183 152.14 -183 145 C-184.56492187 145.01160156 -186.12984375 145.02320313 -187.7421875 145.03515625 C-189.78645714 145.04453363 -191.83072807 145.05363389 -193.875 145.0625 C-195.42380859 145.07506836 -195.42380859 145.07506836 -197.00390625 145.08789062 C-197.99003906 145.09111328 -198.97617188 145.09433594 -199.9921875 145.09765625 C-200.90339355 145.10289307 -201.81459961 145.10812988 -202.75341797 145.11352539 C-205 145 -205 145 -207 144 C-207 137.73 -207 131.46 -207 125 C-211.80190992 125.11835121 -211.80190992 125.11835121 -216.6027832 125.27026367 C-221.55351359 125.33192403 -221.55351359 125.33192403 -223.70507812 123.73242188 C-225.27988497 121.62555359 -225.35170636 120.59231522 -225.29296875 117.98828125 C-225.28172974 116.96408081 -225.28172974 116.96408081 -225.27026367 115.91918945 C-225.22929565 114.62887817 -225.22929565 114.62887817 -225.1875 113.3125 C-225.125625 110.569375 -225.06375 107.82625 -225 105 C-231.27 105 -237.54 105 -244 105 C-244 98.07 -244 91.14 -244 84 C-250.6 84 -257.2 84 -264 84 C-264 70.47 -264 56.94 -264 43 C-270.93 43 -277.86 43 -285 43 C-285 35.74 -285 28.48 -285 21 C-291.6 21 -298.2 21 -305 21 C-305 19.68 -305 18.36 -305 17 C-204.35 17 -103.7 17 0 17 C0 11.39 0 5.78 0 0 Z " fill="#FB9FC6" transform="translate(409,275)"/>
<path d="M0 0 C6.6 0 13.2 0 20 0 C20 6.6 20 13.2 20 20 C27.26 20 34.52 20 42 20 C42 24.29 42 28.58 42 33 C88.2 33 134.4 33 182 33 C182 28.71 182 24.42 182 20 C189.26 20 196.52 20 204 20 C204 26.6 204 33.2 204 40 C193.605 40.495 193.605 40.495 183 41 C182.67 47.93 182.34 54.86 182 62 C176.39 62 170.78 62 165 62 C165 68.27 165 74.54 165 81 C162.59940183 82.20029908 161.10639351 82.11459743 158.4296875 82.09765625 C157.53378906 82.09443359 156.63789063 82.09121094 155.71484375 82.08789062 C154.30912109 82.07532227 154.30912109 82.07532227 152.875 82.0625 C151.93011719 82.05798828 150.98523438 82.05347656 150.01171875 82.04882812 C147.6744523 82.03702375 145.33721831 82.01908799 143 82 C143 88.27 143 94.54 143 101 C142.01 101.495 142.01 101.495 141 102 C141 102.33 141 102.66 141 103 C135.72 103 130.44 103 125 103 C125 109.6 125 116.2 125 123 C121.04162186 123.02686682 117.08342438 123.04677414 113.125 123.0625 C111.43310547 123.07506836 111.43310547 123.07506836 109.70703125 123.08789062 C108.63066406 123.09111328 107.55429688 123.09433594 106.4453125 123.09765625 C105.45031738 123.10289307 104.45532227 123.10812988 103.43017578 123.11352539 C101 123 101 123 99 122 C99 115.73 99 109.46 99 103 C93.06 103 87.12 103 81 103 C81 96.07 81 89.14 81 82 C79.43507813 82.01160156 77.87015625 82.02320313 76.2578125 82.03515625 C74.21354286 82.04453363 72.16927193 82.05363389 70.125 82.0625 C68.57619141 82.07506836 68.57619141 82.07506836 66.99609375 82.08789062 C66.00996094 82.09111328 65.02382812 82.09433594 64.0078125 82.09765625 C63.09660645 82.10289307 62.18540039 82.10812988 61.24658203 82.11352539 C59 82 59 82 57 81 C57 74.73 57 68.46 57 62 C52.19809008 62.11835121 52.19809008 62.11835121 47.3972168 62.27026367 C42.44648641 62.33192403 42.44648641 62.33192403 40.29492188 60.73242188 C38.72011503 58.62555359 38.64829364 57.59231522 38.70703125 54.98828125 C38.71827026 53.96408081 38.71827026 53.96408081 38.72973633 52.91918945 C38.75704834 52.05898193 38.78436035 51.19877441 38.8125 50.3125 C38.874375 47.569375 38.93625 44.82625 39 42 C32.73 42 26.46 42 20 42 C20 35.07 20 28.14 20 21 C13.4 21 6.8 21 0 21 C0 14.07 0 7.14 0 0 Z " fill="#34BCFB" transform="translate(145,338)"/>
<path d="M0 0 C0.85810272 -0.00281982 1.71620544 -0.00563965 2.60031128 -0.00854492 C3.54375397 -0.00652069 4.48719666 -0.00449646 5.45922852 -0.00241089 C6.94714401 -0.00503937 6.94714401 -0.00503937 8.46511841 -0.00772095 C11.75614146 -0.01213553 15.04711113 -0.00920284 18.33813477 -0.00582886 C20.61735037 -0.00650201 22.8965659 -0.00747213 25.17578125 -0.00872803 C29.95744509 -0.01020447 34.73909028 -0.00805216 39.52075195 -0.00338745 C45.66136662 0.0023098 51.80193759 -0.00096949 57.94255066 -0.00695992 C62.65043469 -0.01056697 67.35830829 -0.00942627 72.06619263 -0.00683212 C74.33090215 -0.00616326 76.59561261 -0.00698988 78.86032104 -0.00931168 C82.02092001 -0.01184055 85.1814474 -0.00799424 88.34204102 -0.00241089 C89.2854837 -0.00443512 90.22892639 -0.00645935 91.20095825 -0.00854492 C92.48811234 -0.00431519 92.48811234 -0.00431519 93.80126953 0 C94.54901138 0.00037703 95.29675323 0.00075405 96.06715393 0.0011425 C97.90063477 0.12698364 97.90063477 0.12698364 99.90063477 1.12698364 C99.90063477 7.39698364 99.90063477 13.66698364 99.90063477 20.12698364 C106.83063477 20.12698364 113.76063477 20.12698364 120.90063477 20.12698364 C122.04890326 22.42352064 122.01624651 23.71011531 121.99829102 26.25979614 C121.99579346 26.98569946 121.9932959 27.71160278 121.99072266 28.45950317 C121.98161865 29.38102173 121.97251465 30.30254028 121.96313477 31.25198364 C121.94250977 34.18073364 121.92188477 37.10948364 121.90063477 40.12698364 C128.17063477 40.12698364 134.44063477 40.12698364 140.90063477 40.12698364 C141.23063477 40.78698364 141.56063477 41.44698364 141.90063477 42.12698364 C142.23063477 42.12698364 142.56063477 42.12698364 142.90063477 42.12698364 C142.90063477 48.72698364 142.90063477 55.32698364 142.90063477 62.12698364 C148.84063477 62.12698364 154.78063477 62.12698364 160.90063477 62.12698364 C160.90063477 96.11698364 160.90063477 130.10698364 160.90063477 165.12698364 C154.96063477 165.12698364 149.02063477 165.12698364 142.90063477 165.12698364 C142.90063477 178.65698364 142.90063477 192.18698364 142.90063477 206.12698364 C142.57063477 206.12698364 142.24063477 206.12698364 141.90063477 206.12698364 C140.96151693 175.91124992 140.77156045 145.72080417 140.83197021 115.49197388 C140.84244059 109.67044456 140.84681706 103.8489104 140.85180664 98.02737427 C140.86233975 86.72723001 140.87983364 75.42711366 140.90063477 64.12698364 C134.30063477 64.12698364 127.70063477 64.12698364 120.90063477 64.12698364 C120.90063477 56.86698364 120.90063477 49.60698364 120.90063477 42.12698364 C112.98063477 42.12698364 105.06063477 42.12698364 96.90063477 42.12698364 C96.90063477 35.85698364 96.90063477 29.58698364 96.90063477 23.12698364 C63.90063477 23.12698364 30.90063477 23.12698364 -3.09936523 23.12698364 C-3.09936523 29.39698364 -3.09936523 35.66698364 -3.09936523 42.12698364 C-9.69936523 42.12698364 -16.29936523 42.12698364 -23.09936523 42.12698364 C-23.09936523 34.86698364 -23.09936523 27.60698364 -23.09936523 20.12698364 C-17.48936523 20.12698364 -11.87936523 20.12698364 -6.09936523 20.12698364 C-6.09936523 13.85698364 -6.09936523 7.58698364 -6.09936523 1.12698364 C-3.81053852 -0.01742971 -2.5434485 0.00128245 0 0 Z " fill="#090B0C" transform="translate(330.099365234375,50.873016357421875)"/>
<path d="M0 0 C6.93 0 13.86 0 21 0 C21.77308603 3.09234414 22.12423285 5.09223753 22.12025452 8.16351318 C22.12162918 8.98518478 22.12300385 9.80685638 22.12442017 10.65342712 C22.12082489 11.54606766 22.11722961 12.43870819 22.11352539 13.35839844 C22.11367142 14.30507889 22.11381744 15.25175934 22.1139679 16.22712708 C22.11327153 19.3545664 22.10549198 22.48194608 22.09765625 25.609375 C22.09579109 27.77842171 22.09436765 29.94746883 22.09336853 32.11651611 C22.08955106 37.82441369 22.07972731 43.53228582 22.06866455 49.24017334 C22.0584339 55.06505997 22.05386736 60.88995072 22.04882812 66.71484375 C22.03810438 78.14324215 22.02051378 89.57161497 22 101 C28.6 101 35.2 101 42 101 C42 114.53 42 128.06 42 142 C48.93 142 55.86 142 63 142 C63 147.94 63 153.88 63 160 C69.6 160 76.2 160 83 160 C83 166.93 83 173.86 83 181 C89.6 181 96.2 181 103 181 C103 188.26 103 195.52 103 203 C109.93 203 116.86 203 124 203 C124.095595 216.38330007 123.7958092 229.64177415 123 243 C122.67 243 122.34 243 122 243 C122 236.73 122 230.46 122 224 C115.88215726 224.0394843 115.88215726 224.0394843 109.7644043 224.09008789 C109.00039307 224.09258545 108.23638184 224.09508301 107.44921875 224.09765625 C106.66893311 224.10289307 105.88864746 224.10812988 105.0847168 224.11352539 C103 224 103 224 100 223 C100 217.39 100 211.78 100 206 C94.39 206 88.78 206 83 206 C83 198.74 83 191.48 83 184 C76.4 184 69.8 184 63 184 C61.85345518 181.70691037 61.80270883 180.20090344 61.68359375 177.6484375 C61.62075195 176.37226563 61.62075195 176.37226563 61.55664062 175.0703125 C61.51732422 174.18085938 61.47800781 173.29140625 61.4375 172.375 C61.39431641 171.4778125 61.35113281 170.580625 61.30664062 169.65625 C61.20043139 167.43765717 61.09838806 165.2189512 61 163 C60.16021606 163.02356567 60.16021606 163.02356567 59.3034668 163.04760742 C56.7649141 163.10999848 54.22652271 163.14900218 51.6875 163.1875 C50.80642578 163.21263672 49.92535156 163.23777344 49.01757812 163.26367188 C47.74624023 163.27817383 47.74624023 163.27817383 46.44921875 163.29296875 C45.27879028 163.31653442 45.27879028 163.31653442 44.0847168 163.34057617 C42 163 42 163 40.24023438 161.74609375 C38.69992219 159.57752824 38.65084813 158.41013794 38.70703125 155.76953125 C38.71827026 154.68442261 38.71827026 154.68442261 38.72973633 153.57739258 C38.75704834 152.66497803 38.78436035 151.75256348 38.8125 150.8125 C38.874375 147.904375 38.93625 144.99625 39 142 C32.4 142 25.8 142 19 142 C19 128.47 19 114.94 19 101 C12.73 101 6.46 101 0 101 C0 67.67 0 34.34 0 0 Z " fill="#0C0B0C" transform="translate(21,115)"/>
<path d="M0 0 C1.13795344 0.00138269 1.13795344 0.00138269 2.29889584 0.00279331 C3.16692837 0.00141865 4.0349609 0.00004398 4.92929745 -0.00137234 C5.88882824 0.00222294 6.84835903 0.00581821 7.83696651 0.00952244 C8.84173031 0.00937641 9.8464941 0.00923038 10.88170528 0.00907993 C14.22024817 0.00977953 17.55873604 0.01757409 20.89726925 0.02539158 C23.20512518 0.02725559 25.51298151 0.02867957 27.82083797 0.0296793 C33.90854126 0.03350578 39.99622086 0.04333718 46.08391476 0.05438328 C52.29057654 0.0645946 58.49724212 0.06917632 64.70390987 0.0742197 C76.89207302 0.08495933 89.08021234 0.10255718 101.268363 0.12304783 C101.268363 7.38304783 101.268363 14.64304783 101.268363 22.12304783 C107.208363 22.12304783 113.148363 22.12304783 119.268363 22.12304783 C119.268363 28.72304783 119.268363 35.32304783 119.268363 42.12304783 C113.328363 42.12304783 107.388363 42.12304783 101.268363 42.12304783 C101.268363 35.85304783 101.268363 29.58304783 101.268363 23.12304783 C67.278363 23.12304783 33.288363 23.12304783 -1.731637 23.12304783 C-1.731637 29.72304783 -1.731637 36.32304783 -1.731637 43.12304783 C-8.661637 43.12304783 -15.591637 43.12304783 -22.731637 43.12304783 C-22.731637 50.05304783 -22.731637 56.98304783 -22.731637 64.12304783 C-29.331637 64.12304783 -35.931637 64.12304783 -42.731637 64.12304783 C-43.98412202 61.61807779 -43.84538107 59.91451509 -43.82929325 57.11523533 C-43.82607059 56.12910252 -43.82284794 55.1429697 -43.81952763 54.12695408 C-43.81114872 53.09441502 -43.80276981 52.06187595 -43.794137 50.99804783 C-43.78962528 49.95777439 -43.78511356 48.91750095 -43.78046513 47.84570408 C-43.76865667 45.27146096 -43.75072085 42.69724729 -43.731637 40.12304783 C-37.791637 40.12304783 -31.851637 40.12304783 -25.731637 40.12304783 C-25.85005036 34.66299915 -25.85005036 34.66299915 -26.00190067 29.20385838 C-26.00939335 28.52105808 -26.01688602 27.83825779 -26.02460575 27.13476658 C-26.0403162 26.43827 -26.05602665 25.74177341 -26.07221317 25.02417088 C-25.61535879 22.47397371 -24.82132165 21.62827018 -22.731637 20.12304783 C-20.6469202 19.78247166 -20.6469202 19.78247166 -18.28241825 19.83007908 C-17.43485966 19.83974705 -16.58730106 19.84941502 -15.71405888 19.85937595 C-14.83298466 19.88451267 -13.95191044 19.90964939 -13.044137 19.93554783 C-12.15146122 19.94908298 -11.25878544 19.96261814 -10.33905888 19.97656345 C-8.13597534 20.01190704 -5.93411118 20.0612429 -3.731637 20.12304783 C-3.69405277 19.26755344 -3.69405277 19.26755344 -3.65570927 18.39477634 C-3.54007151 15.82478626 -3.41720076 13.25519255 -3.294137 10.68554783 C-3.25482059 9.7877158 -3.21550419 8.88988377 -3.17499638 7.9648447 C-3.11215458 6.68383884 -3.11215458 6.68383884 -3.04804325 5.37695408 C-3.01138554 4.5861948 -2.97472782 3.79543552 -2.93695927 2.98071384 C-2.66902883 0.55659646 -2.44587762 0.17380082 0 0 Z " fill="#09090A" transform="translate(85.7316370010376,50.876952171325684)"/>
<path d="M0 0 C6.6 0 13.2 0 20 0 C20 6.6 20 13.2 20 20 C27.26 20 34.52 20 42 20 C42 26.27 42 32.54 42 39 C47.94 39 53.88 39 60 39 C60 45.6 60 52.2 60 59 C66.93 59 73.86 59 81 59 C81 66.26 81 73.52 81 81 C87.6 81 94.2 81 101 81 C101.09865363 94.71285422 100.76972205 108.30994356 100 122 C99.67 122 99.34 122 99 122 C99 115.73 99 109.46 99 103 C93.06 103 87.12 103 81 103 C81 96.07 81 89.14 81 82 C79.43507813 82.01160156 77.87015625 82.02320313 76.2578125 82.03515625 C74.21354286 82.04453363 72.16927193 82.05363389 70.125 82.0625 C68.57619141 82.07506836 68.57619141 82.07506836 66.99609375 82.08789062 C66.00996094 82.09111328 65.02382812 82.09433594 64.0078125 82.09765625 C63.09660645 82.10289307 62.18540039 82.10812988 61.24658203 82.11352539 C59 82 59 82 57 81 C57 74.73 57 68.46 57 62 C52.19809008 62.11835121 52.19809008 62.11835121 47.3972168 62.27026367 C42.44648641 62.33192403 42.44648641 62.33192403 40.29492188 60.73242188 C38.72011503 58.62555359 38.64829364 57.59231522 38.70703125 54.98828125 C38.71827026 53.96408081 38.71827026 53.96408081 38.72973633 52.91918945 C38.75704834 52.05898193 38.78436035 51.19877441 38.8125 50.3125 C38.874375 47.569375 38.93625 44.82625 39 42 C32.73 42 26.46 42 20 42 C20 35.07 20 28.14 20 21 C13.4 21 6.8 21 0 21 C0 14.07 0 7.14 0 0 Z " fill="#0A0C0E" transform="translate(145,338)"/>
<path d="M0 0 C6.6 0 13.2 0 20 0 C20 13.86 20 27.72 20 42 C13.4 42 6.8 42 0 42 C0 54.87 0 67.74 0 81 C-6.6 81 -13.2 81 -20 81 C-20 60.87 -20 40.74 -20 20 C-13.4 20 -6.8 20 0 20 C0 13.4 0 6.8 0 0 Z " fill="#FBFEFE" transform="translate(104,93)"/>
<path d="M0 0 C0.33 0 0.66 0 1 0 C1 5.61 1 11.22 1 17 C7.27 17 13.54 17 20 17 C21.25248502 19.50497004 21.11374406 21.20853274 21.09765625 24.0078125 C21.09515869 24.8961377 21.09266113 25.78446289 21.09008789 26.69970703 C21.08098389 27.83005371 21.07187988 28.96040039 21.0625 30.125 C21.041875 33.71375 21.02125 37.3025 21 41 C28.26 41 35.52 41 43 41 C43 46.61 43 52.22 43 58 C48.28 58 53.56 58 59 58 C59 52.39 59 46.78 59 41 C59.99 40.67 60.98 40.34 62 40 C62 39.67 62 39.34 62 39 C66.95 39 71.9 39 77 39 C77 32.4 77 25.8 77 19 C77.33 19 77.66 19 78 19 C78.75610263 33.02007316 79.10174801 46.95877451 79 61 C73.06 61 67.12 61 61 61 C61 67.93 61 74.86 61 82 C54.07 82 47.14 82 40 82 C40 75.07 40 68.14 40 61 C33.4 61 26.8 61 20 61 C20 54.4 20 47.8 20 41 C13.07 41 6.14 41 -1 41 C-1.020625 37.57625 -1.04125 34.1525 -1.0625 30.625 C-1.071604 29.54686035 -1.08070801 28.4687207 -1.09008789 27.35791016 C-1.09258545 26.51019043 -1.09508301 25.6624707 -1.09765625 24.7890625 C-1.10289307 23.91975098 -1.10812988 23.05043945 -1.11352539 22.15478516 C-1 20 -1 20 0 18 C0.08308638 16.62451844 0.10736016 15.24514204 0.09765625 13.8671875 C0.09443359 13.06152344 0.09121094 12.25585938 0.08789062 11.42578125 C0.07951172 10.58402344 0.07113281 9.74226563 0.0625 8.875 C0.05798828 8.02550781 0.05347656 7.17601563 0.04882812 6.30078125 C0.03702874 4.20049091 0.01909306 2.1002367 0 0 Z M43 59 C43 59.33 43 59.66 43 60 C48.28 60 53.56 60 59 60 C59 59.67 59 59.34 59 59 C53.72 59 48.44 59 43 59 Z " fill="#0A0A0A" transform="translate(206,74)"/>
<path d="M0 0 C7.26 0 14.52 0 22 0 C22 6.6 22 13.2 22 20 C11.605 20.495 11.605 20.495 1 21 C0.67 27.93 0.34 34.86 0 42 C-5.61 42 -11.22 42 -17 42 C-17 48.27 -17 54.54 -17 61 C-19.40059817 62.20029908 -20.89360649 62.11459743 -23.5703125 62.09765625 C-24.46621094 62.09443359 -25.36210937 62.09121094 -26.28515625 62.08789062 C-27.69087891 62.07532227 -27.69087891 62.07532227 -29.125 62.0625 C-30.54232422 62.05573242 -30.54232422 62.05573242 -31.98828125 62.04882812 C-34.3255477 62.03702375 -36.66278169 62.01908799 -39 62 C-39 68.27 -39 74.54 -39 81 C-39.99 81.495 -39.99 81.495 -41 82 C-41 82.33 -41 82.66 -41 83 C-46.28 83 -51.56 83 -57 83 C-57 89.6 -57 96.2 -57 103 C-57.33 103 -57.66 103 -58 103 C-58.75573446 88.98675352 -59.13698472 75.03332368 -59 61 C-53.39 61 -47.78 61 -42 61 C-42 53.74 -42 46.48 -42 39 C-34.74 39 -27.48 39 -20 39 C-20 32.4 -20 25.8 -20 19 C-13.4 19 -6.8 19 0 19 C0 12.73 0 6.46 0 0 Z " fill="#090A0A" transform="translate(327,358)"/>
<path d="M0 0 C6.6 0 13.2 0 20 0 C20 13.53 20 27.06 20 41 C13.73 41 7.46 41 1 41 C1 47.27 1 53.54 1 60 C-9.395 60.495 -9.395 60.495 -20 61 C-20.33 67.6 -20.66 74.2 -21 81 C-21.99 81.495 -21.99 81.495 -23 82 C-23 82.33 -23 82.66 -23 83 C-28.28 83 -33.56 83 -39 83 C-39 89.6 -39 96.2 -39 103 C-39.33 103 -39.66 103 -40 103 C-40.80674203 88.31986969 -41.12796231 73.70144787 -41 59 C-35.39 59 -29.78 59 -24 59 C-24 53.06 -24 47.12 -24 41 C-16.41 40.67 -8.82 40.34 -1 40 C-0.67 26.8 -0.34 13.6 0 0 Z " fill="#090909" transform="translate(451,216)"/>
<path d="M0 0 C7.26 0 14.52 0 22 0 C22 7.92 22 15.84 22 24 C15.73 24 9.46 24 3 24 C3 29.61 3 35.22 3 41 C0.29283758 41.90238747 -1.23776768 42.11851302 -4.01171875 42.09765625 C-5.03591919 42.09390991 -5.03591919 42.09390991 -6.08081055 42.09008789 C-7.37112183 42.07643188 -7.37112183 42.07643188 -8.6875 42.0625 C-11.430625 42.041875 -14.17375 42.02125 -17 42 C-17 48.27 -17 54.54 -17 61 C-19.296537 62.1482685 -20.58313167 62.11561175 -23.1328125 62.09765625 C-23.85871582 62.09515869 -24.58461914 62.09266113 -25.33251953 62.09008789 C-26.25403809 62.08098389 -27.17555664 62.07187988 -28.125 62.0625 C-31.05375 62.041875 -33.9825 62.02125 -37 62 C-37 68.27 -37 74.54 -37 81 C-37.33 81 -37.66 81 -38 81 C-38.7958092 67.64177415 -39.095595 54.38330007 -39 41 C-32.73 41 -26.46 41 -20 41 C-20 34.4 -20 27.8 -20 21 C-13.4 21 -6.8 21 0 21 C0 14.07 0 7.14 0 0 Z " fill="#0C0A0B" transform="translate(388,297)"/>
<path d="M0 0 C0.33 0 0.66 0 1 0 C1 6.27 1 12.54 1 19 C8.26 19 15.52 19 23 19 C23 13.06 23 7.12 23 1 C23.33 1 23.66 1 24 1 C24.02888514 4.14581423 24.04675923 7.29159469 24.0625 10.4375 C24.07087891 11.33533203 24.07925781 12.23316406 24.08789062 13.15820312 C24.09111328 14.01220703 24.09433594 14.86621094 24.09765625 15.74609375 C24.10289307 16.53685303 24.10812988 17.3276123 24.11352539 18.14233398 C24 20 24 20 23 21 C21.58429877 21.08651611 20.164405 21.10704904 18.74609375 21.09765625 C17.89208984 21.09443359 17.03808594 21.09121094 16.15820312 21.08789062 C15.26037109 21.07951172 14.36253906 21.07113281 13.4375 21.0625 C12.53580078 21.05798828 11.63410156 21.05347656 10.70507812 21.04882812 C8.46998686 21.03700225 6.23502563 21.0205222 4 21 C4.00785522 21.89307861 4.00785522 21.89307861 4.01586914 22.80419922 C4.03661999 25.49445547 4.04965407 28.18469489 4.0625 30.875 C4.07087891 31.81214844 4.07925781 32.74929687 4.08789062 33.71484375 C4.09272461 35.05869141 4.09272461 35.05869141 4.09765625 36.4296875 C4.10551147 37.67081299 4.10551147 37.67081299 4.11352539 38.93701172 C4 41 4 41 3 43 C-3.93 43 -10.86 43 -18 43 C-18 48.61 -18 54.22 -18 60 C42.06 60 102.12 60 164 60 C164 54.39 164 48.78 164 43 C158.06 43 152.12 43 146 43 C146 42.34 146 41.68 146 41 C152.6 41 159.2 41 166 41 C166 74.33 166 107.66 166 142 C165.67 142 165.34 142 165 142 C165 115.6 165 89.2 165 62 C156.64699585 62.00785522 156.64699585 62.00785522 148.12524414 62.01586914 C129.77681448 62.03239973 111.42838453 62.04351991 93.07994938 62.05181217 C81.94953597 62.05697571 70.8191296 62.06401952 59.6887207 62.07543945 C49.99119784 62.08538451 40.29368007 62.091853 30.59615225 62.09408849 C25.45802171 62.0953959 20.31990574 62.09848366 15.18177986 62.10573006 C10.35150554 62.11248747 5.52125188 62.11461753 0.69097328 62.11310768 C-1.08725853 62.11338414 -2.86549098 62.1153909 -4.64371872 62.11920547 C-7.06063636 62.12413838 -9.47747467 62.1229998 -11.89439392 62.12025452 C-12.96392639 62.12462378 -12.96392639 62.12462378 -14.05506557 62.12908131 C-18.88587879 62.11412121 -18.88587879 62.11412121 -20 61 C-20.0927833 59.61839885 -20.11747043 58.23211962 -20.11352539 56.84741211 C-20.11341209 55.52615578 -20.11341209 55.52615578 -20.11329651 54.1782074 C-20.10555458 52.74227989 -20.10555458 52.74227989 -20.09765625 51.27734375 C-20.0962413 50.30213272 -20.09482635 49.32692169 -20.09336853 48.32215881 C-20.08775133 45.19390857 -20.07519593 42.06572877 -20.0625 38.9375 C-20.05748722 36.82226666 -20.05292393 34.70703219 -20.04882812 32.59179688 C-20.03862531 27.39448199 -20.01905331 22.19732025 -20 17 C-13.4 17 -6.8 17 0 17 C0 11.39 0 5.78 0 0 Z " fill="#69A6D5" transform="translate(305,74)"/>
<path d="M0 0 C1.25780273 0.00773437 1.25780273 0.00773437 2.54101562 0.015625 C3.8490918 0.0465625 3.8490918 0.0465625 5.18359375 0.078125 C6.05951172 0.08328125 6.93542969 0.0884375 7.83789062 0.09375 C14.31182481 0.17349053 14.31182481 0.17349053 16.62109375 1.328125 C17.98916565 1.43127726 19.36201274 1.47454568 20.73391724 1.48634338 C21.59491028 1.4961322 22.45590332 1.50592102 23.34298706 1.51600647 C24.28957184 1.52176193 25.23615662 1.5275174 26.21142578 1.53344727 C27.20658203 1.54334686 28.20173828 1.55324646 29.22705078 1.56344604 C32.52764479 1.59511994 35.8282532 1.61984175 39.12890625 1.64453125 C41.41291689 1.66509569 43.69692367 1.68609202 45.98092651 1.70750427 C52.0011687 1.7627776 58.02144553 1.81216365 64.04174805 1.86035156 C70.18150934 1.91052822 76.32122014 1.96623428 82.4609375 2.02148438 C94.51427981 2.12913028 106.56766591 2.23056093 118.62109375 2.328125 C118.62109375 2.658125 118.62109375 2.988125 118.62109375 3.328125 C84.96109375 3.328125 51.30109375 3.328125 16.62109375 3.328125 C16.62109375 9.928125 16.62109375 16.528125 16.62109375 23.328125 C9.69109375 23.328125 2.76109375 23.328125 -4.37890625 23.328125 C-4.37890625 30.258125 -4.37890625 37.188125 -4.37890625 44.328125 C-10.97890625 44.328125 -17.57890625 44.328125 -24.37890625 44.328125 C-25.63139127 41.82315496 -25.49265031 40.11959226 -25.4765625 37.3203125 C-25.47333984 36.33417969 -25.47011719 35.34804687 -25.46679688 34.33203125 C-25.45841797 33.29949219 -25.45003906 32.26695313 -25.44140625 31.203125 C-25.43689453 30.16285156 -25.43238281 29.12257813 -25.42773438 28.05078125 C-25.41592592 25.47653813 -25.3979901 22.90232447 -25.37890625 20.328125 C-19.43890625 20.328125 -13.49890625 20.328125 -7.37890625 20.328125 C-7.49731961 14.86807632 -7.49731961 14.86807632 -7.64916992 9.40893555 C-7.6566626 8.72613525 -7.66415527 8.04333496 -7.671875 7.33984375 C-7.68758545 6.64334717 -7.7032959 5.94685059 -7.71948242 5.22924805 C-6.92858231 0.81438126 -4.09457006 -0.04985516 0 0 Z " fill="#081216" transform="translate(67.37890625,70.671875)"/>
<path d="M0 0 C0.33 6.6 0.66 13.2 1 20 C7.93 20.33 14.86 20.66 22 21 C22.095595 34.38330007 21.7958092 47.64177415 21 61 C20.67 61 20.34 61 20 61 C20 54.73 20 48.46 20 42 C13.88215726 42.0394843 13.88215726 42.0394843 7.7644043 42.09008789 C7.00039307 42.09258545 6.23638184 42.09508301 5.44921875 42.09765625 C4.66893311 42.10289307 3.88864746 42.10812988 3.0847168 42.11352539 C1 42 1 42 -2 41 C-2 35.39 -2 29.78 -2 24 C-7.61 24 -13.22 24 -19 24 C-19 16.74 -19 9.48 -19 2 C-25.6 2 -32.2 2 -39 2 C-39 1.67 -39 1.34 -39 1 C-25.97550091 0.23143103 -13.04838104 -0.09885137 0 0 Z " fill="#0A0909" transform="translate(123,297)"/>
<path d="M0 0 C33.99 0 67.98 0 103 0 C103 6.27 103 12.54 103 19 C109.27 18.67 115.54 18.34 122 18 C121.67 25.59 121.34 33.18 121 41 C127.93 41 134.86 41 142 41 C142 47.6 142 54.2 142 61 C148.6 61 155.2 61 162 61 C162 61.33 162 61.66 162 62 C121.74 62 81.48 62 40 62 C40 47.81 40 33.62 40 19 C40.33 19 40.66 19 41 19 C41 32.53 41 46.06 41 60 C74 60 107 60 141 60 C141 54.39 141 48.78 141 43 C139.49566406 43.01160156 137.99132812 43.02320313 136.44140625 43.03515625 C134.48177207 43.04453249 132.52213655 43.05363287 130.5625 43.0625 C129.07266602 43.07506836 129.07266602 43.07506836 127.55273438 43.08789062 C126.60849609 43.09111328 125.66425781 43.09433594 124.69140625 43.09765625 C123.81685791 43.10289307 122.94230957 43.10812988 122.04125977 43.11352539 C120 43 120 43 119 42 C118.91314397 40.43827255 118.89297781 38.87270656 118.90234375 37.30859375 C118.90717773 35.89223633 118.90717773 35.89223633 118.91210938 34.44726562 C118.92467773 32.95743164 118.92467773 32.95743164 118.9375 31.4375 C118.94201172 30.44041016 118.94652344 29.44332031 118.95117188 28.41601562 C118.96299977 25.94398513 118.98093585 23.47198528 119 21 C113.39 21 107.78 21 102 21 C99.01485158 15.02970315 101 7.6749948 101 1 C68 1 35 1 1 1 C1 6.94 1 12.88 1 19 C0.67 19 0.34 19 0 19 C0 12.73 0 6.46 0 0 Z " fill="#58B0DE" transform="translate(84,74)"/>
<path d="M0 0 C0.33 0 0.66 0 1 0 C1.88539098 13.69193906 2.08740354 27.27764347 2 41 C-5.26 41 -12.52 41 -20 41 C-20 33.08 -20 25.16 -20 17 C-13.4 17 -6.8 17 0 17 C0 11.39 0 5.78 0 0 Z " fill="#09090A" transform="translate(305,74)"/>
<path d="M0 0 C7.26 0 14.52 0 22 0 C22 7.26 22 14.52 22 22 C14.74 22 7.48 22 0 22 C0 14.74 0 7.48 0 0 Z " fill="#090A0A" transform="translate(246,439)"/>
<path d="M0 0 C7.26 0 14.52 0 22 0 C22 6.6 22 13.2 22 20 C18.52078265 20.02683201 15.04176961 20.0467567 11.5625 20.0625 C10.07266602 20.07506836 10.07266602 20.07506836 8.55273438 20.08789062 C7.60849609 20.09111328 6.66425781 20.09433594 5.69140625 20.09765625 C4.37958374 20.10551147 4.37958374 20.10551147 3.04125977 20.11352539 C1 20 1 20 0 19 C-0.08651611 17.58429877 -0.10704904 16.164405 -0.09765625 14.74609375 C-0.09515869 13.9770874 -0.09266113 13.20808105 -0.09008789 12.41577148 C-0.07643188 10.9415271 -0.07643188 10.9415271 -0.0625 9.4375 C-0.041875 6.323125 -0.02125 3.20875 0 0 Z " fill="#0A090A" transform="translate(327,358)"/>
<path d="M0 0 C0.33 0 0.66 0 1 0 C1.76972205 13.69005644 2.09865363 27.28714578 2 41 C-4.27 41 -10.54 41 -17 41 C-17 33.74 -17 26.48 -17 19 C-11.39 19 -5.78 19 0 19 C0 12.73 0 6.46 0 0 Z " fill="#08090A" transform="translate(324,52)"/>
<path d="M0 0 C0.33 0 0.66 0 1 0 C1 12.87 1 25.74 1 39 C-4.61 39 -10.22 39 -16 39 C-18 37 -18 37 -18.22705078 34.93701172 C-18.21657715 34.10959473 -18.20610352 33.28217773 -18.1953125 32.4296875 C-18.18886719 31.53378906 -18.18242188 30.63789062 -18.17578125 29.71484375 C-18.15902344 28.77769531 -18.14226563 27.84054688 -18.125 26.875 C-18.11597656 25.93011719 -18.10695312 24.98523438 -18.09765625 24.01171875 C-18.07404668 21.67437173 -18.03817494 19.33715451 -18 17 C-12.06 17 -6.12 17 0 17 C0 11.39 0 5.78 0 0 Z " fill="#0A090A" transform="translate(60,74)"/>
<path d="M0 0 C2.81256281 -0.02684312 5.62487241 -0.04676188 8.4375 -0.0625 C9.23994141 -0.07087891 10.04238281 -0.07925781 10.86914062 -0.08789062 C12.91295221 -0.0965143 14.95683902 -0.0522815 17 0 C18 1 18 1 18.11352539 3.04125977 C18.10828857 3.91580811 18.10305176 4.79035645 18.09765625 5.69140625 C18.09443359 6.63564453 18.09121094 7.57988281 18.08789062 8.55273438 C18.07951172 9.54595703 18.07113281 10.53917969 18.0625 11.5625 C18.05798828 12.55958984 18.05347656 13.55667969 18.04882812 14.58398438 C18.03700023 17.05601487 18.01906415 19.52801472 18 22 C12.72 22 7.44 22 2 22 C2 28.6 2 35.2 2 42 C1.67 42 1.34 42 1 42 C0.24426554 27.98675352 -0.13698472 14.03332368 0 0 Z " fill="#080A0B" transform="translate(268,419)"/>
<path d="M0 0 C6.27 0 12.54 0 19 0 C19 12.87 19 25.74 19 39 C18.67 39 18.34 39 18 39 C18 32.73 18 26.46 18 20 C12.06 20 6.12 20 0 20 C0 13.4 0 6.8 0 0 Z " fill="#0A0A0A" transform="translate(226,421)"/>
<path d="M0 0 C5.94 0 11.88 0 18 0 C18 6.6 18 13.2 18 20 C14.37918537 21.20693821 11.0749281 21.10782079 7.3125 21.0625 C3.6928125 21.0315625 3.6928125 21.0315625 0 21 C0 14.07 0 7.14 0 0 Z " fill="#090A0A" transform="translate(453,93)"/>
<path d="M0 0 C46.2 0 92.4 0 140 0 C140 1.98 140 3.96 140 6 C133.4 6 126.8 6 120 6 C120 5.67 120 5.34 120 5 C125.94 5 131.88 5 138 5 C138 4.01 138 3.02 138 2 C93.12 2 48.24 2 2 2 C2 2.66 2 3.32 2 4 C6.95 4 11.9 4 17 4 C17.33 4.66 17.66 5.32 18 6 C12.06 6 6.12 6 0 6 C0 4.02 0 2.04 0 0 Z " fill="#50B3EC" transform="translate(187,371)"/>
<path d="M0 0 C0.33 0 0.66 0 1 0 C1.02888514 3.14581423 1.04675923 6.29159469 1.0625 9.4375 C1.07087891 10.33533203 1.07925781 11.23316406 1.08789062 12.15820312 C1.09111328 13.01220703 1.09433594 13.86621094 1.09765625 14.74609375 C1.10289307 15.53685303 1.10812988 16.3276123 1.11352539 17.14233398 C1 19 1 19 0 20 C-1.41570123 20.08651611 -2.835595 20.10704904 -4.25390625 20.09765625 C-5.10791016 20.09443359 -5.96191406 20.09121094 -6.84179688 20.08789062 C-7.73962891 20.07951172 -8.63746094 20.07113281 -9.5625 20.0625 C-10.46419922 20.05798828 -11.36589844 20.05347656 -12.29492188 20.04882812 C-14.53001314 20.03700225 -16.76497437 20.0205222 -19 20 C-18.99214478 20.89307861 -18.99214478 20.89307861 -18.98413086 21.80419922 C-18.96338001 24.49445547 -18.95034593 27.18469489 -18.9375 29.875 C-18.92912109 30.81214844 -18.92074219 31.74929687 -18.91210938 32.71484375 C-18.90727539 34.05869141 -18.90727539 34.05869141 -18.90234375 35.4296875 C-18.89448853 36.67081299 -18.89448853 36.67081299 -18.88647461 37.93701172 C-19 40 -19 40 -20 42 C-26.93 42 -33.86 42 -41 42 C-41 47.94 -41 53.88 -41 60 C-41.66 60 -42.32 60 -43 60 C-43 53.4 -43 46.8 -43 40 C-35.74 40 -28.48 40 -21 40 C-21 32.74 -21 25.48 -21 18 C-14.07 18 -7.14 18 0 18 C0 12.06 0 6.12 0 0 Z " fill="#43A4CD" transform="translate(328,75)"/>
<path d="M0 0 C0.66 0 1.32 0 2 0 C2 6.27 2 12.54 2 19 C8.6 19 15.2 19 22 19 C22 25.93 22 32.86 22 40 C28.6 40 35.2 40 42 40 C42 40.33 42 40.66 42 41 C35.07 41 28.14 41 21 41 C21 34.4 21 27.8 21 21 C14.07 21 7.14 21 0 21 C0 14.07 0 7.14 0 0 Z " fill="#041724" transform="translate(205,94)"/>
<path d="M0 0 C7.59 0 15.18 0 23 0 C23 0.33 23 0.66 23 1 C16.07 1 9.14 1 2 1 C2 7.93 2 14.86 2 22 C-4.6 22 -11.2 22 -18 22 C-18.33 20.68 -18.66 19.36 -19 18 C-18.34 18.33 -17.68 18.66 -17 19 C-14.11932263 19.23286913 -11.25987481 19.4194594 -8.375 19.5625 C-5.61125 19.706875 -2.8475 19.85125 0 20 C0 13.4 0 6.8 0 0 Z " fill="#0A2A3A" transform="translate(61,93)"/>
<path d="M0 0 C0.33 0 0.66 0 1 0 C1 33.33 1 66.66 1 101 C0.67 101 0.34 101 0 101 C0 67.67 0 34.34 0 0 Z " fill="#090909" transform="translate(492,115)"/>
<path d="M0 0 C0.33 0 0.66 0 1 0 C1 33.33 1 66.66 1 101 C0.67 101 0.34 101 0 101 C0 67.67 0 34.34 0 0 Z " fill="#0A0A0A" transform="translate(19,115)"/>
<path d="M0 0 C6.93 0 13.86 0 21 0 C20.67 0.66 20.34 1.32 20 2 C13.73 1.67 7.46 1.34 1 1 C1.33 7.6 1.66 14.2 2 21 C-0.50100574 22.25050287 -2.00343052 22.02993449 -4.7890625 21.87890625 C-5.63678223 21.83580322 -6.48450195 21.7927002 -7.35791016 21.74829102 C-8.97511963 21.65632446 -8.97511963 21.65632446 -10.625 21.5625 C-14.04875 21.376875 -17.4725 21.19125 -21 21 C-20.67 28.26 -20.34 35.52 -20 43 C-20.66 43 -21.32 43 -22 43 C-22 35.41 -22 27.82 -22 20 C-14.74 20 -7.48 20 0 20 C0 13.4 0 6.8 0 0 Z " fill="#0F4D67" transform="translate(307,377)"/>
<path d="M0 0 C7.59 0 15.18 0 23 0 C23 0.66 23 1.32 23 2 C16.07 2 9.14 2 2 2 C2 7.94 2 13.88 2 20 C1.34 20 0.68 20 0 20 C0 13.4 0 6.8 0 0 Z " fill="#449BC0" transform="translate(285,115)"/>
<path d="M0 0 C0.33 0 0.66 0 1 0 C1 7.26 1 14.52 1 22 C-5.93 22 -12.86 22 -20 22 C-20 21.34 -20 20.68 -20 20 C-13.73 20 -7.46 20 -1 20 C-1.03958027 13.79207086 -1.03958027 13.79207086 -1.09008789 7.58422852 C-1.09258545 6.81522217 -1.09508301 6.04621582 -1.09765625 5.25390625 C-1.10551147 4.06776733 -1.10551147 4.06776733 -1.11352539 2.85766602 C-1 1 -1 1 0 0 Z " fill="#000C17" transform="translate(306,93)"/>
<path d="M0 0 C0.66 0 1.32 0 2 0 C2 6.27 2 12.54 2 19 C-5.26 19 -12.52 19 -20 19 C-19.67 18.34 -19.34 17.68 -19 17 C-12.73 17 -6.46 17 0 17 C0 11.39 0 5.78 0 0 Z " fill="#4BBAEA" transform="translate(305,378)"/>
<path d="M0 0 C0.33 0 0.66 0 1 0 C1 5.94 1 11.88 1 18 C1.99 18 2.98 18 4 18 C3.67 25.26 3.34 32.52 3 40 C2.67 40 2.34 40 2 40 C2 33.73 2 27.46 2 21 C1.34 21 0.68 21 0 21 C0 14.07 0 7.14 0 0 Z " fill="#626262" transform="translate(427,257)"/>
<path d="M0 0 C6.93 0 13.86 0 21 0 C21 0.33 21 0.66 21 1 C14.4 1 7.8 1 1 1 C1 6.61 1 12.22 1 18 C0.67 18 0.34 18 0 18 C0 12.06 0 6.12 0 0 Z " fill="#090A0B" transform="translate(328,379)"/>
<path d="M0 0 C0.33 0 0.66 0 1 0 C1 6.6 1 13.2 1 20 C6.61 20 12.22 20 18 20 C18 20.33 18 20.66 18 21 C12.06 21 6.12 21 0 21 C0 14.07 0 7.14 0 0 Z " fill="#090A0A" transform="translate(228,93)"/>
<path d="M0 0 C7.26 0 14.52 0 22 0 C22 0.33 22 0.66 22 1 C14.74 1 7.48 1 0 1 C0 0.67 0 0.34 0 0 Z " fill="#0A0A0A" transform="translate(246,462)"/>
<path d="M0 0 C6.6 0 13.2 0 20 0 C20 0.33 20 0.66 20 1 C13.4 1 6.8 1 0 1 C0 0.67 0 0.34 0 0 Z " fill="#0C0C0C" transform="translate(431,277)"/>
<path d="M0 0 C0.33 0 0.66 0 1 0 C1 6.6 1 13.2 1 20 C0.67 20 0.34 20 0 20 C0 13.4 0 6.8 0 0 Z " fill="#080C0D" transform="translate(40,93)"/>
<path d="M0 0 C6.27 0 12.54 0 19 0 C19 0.33 19 0.66 19 1 C12.73 1 6.46 1 0 1 C0 0.67 0 0.34 0 0 Z " fill="#0A0E0F" transform="translate(21,113)"/>
<path d="M0 0 C5.61 0 11.22 0 17 0 C17 0.33 17 0.66 17 1 C11.39 1 5.78 1 0 1 C0 0.67 0 0.34 0 0 Z " fill="#090909" transform="translate(188,71)"/>
<path d="M0 0 C2 1 2 1 2 1 Z " fill="#0A0909" transform="translate(223,421)"/>
<path d="" fill="#0A0A0A" transform="translate(0,0)"/>
<path d="" fill="#0A0A0A" transform="translate(0,0)"/>
</svg>
