<svg id="svg" version="1.1" width="400" height="389.04761904761904" viewBox="0 0 400 389.04761904761904" xmlns="http://www.w3.org/2000/svg" xmlns:xlink="http://www.w3.org/1999/xlink"><g id="svgg"><path id="path0" d="M280.934 20.068 C 247.465 23.761,219.100 42.660,203.117 71.918 C 199.890 77.825,200.231 77.760,197.665 72.957 C 180.262 40.378,146.660 20.204,109.855 20.238 C 104.984 20.243,93.960 21.068,92.023 21.573 C 91.595 21.685,89.393 22.210,87.129 22.741 C 65.713 27.762,46.257 40.078,32.013 57.631 C 27.234 63.520,20.271 75.044,20.113 77.325 L 20.039 78.405 200.304 78.502 C 359.887 78.589,380.594 78.533,380.792 78.019 C 380.915 77.698,379.906 75.389,378.542 72.869 C 363.228 44.568,337.149 25.969,305.447 20.739 C 302.310 20.222,284.070 19.722,280.934 20.068 M152.780 313.527 C 152.679 313.691,154.901 316.188,157.718 319.076 C 172.648 334.381,189.986 355.176,198.833 368.388 C 200.658 371.114,200.774 371.047,205.046 364.748 C 215.822 348.859,227.912 333.726,240.764 320.039 C 243.979 316.615,246.530 313.682,246.434 313.521 C 246.201 313.136,153.018 313.142,152.780 313.527 " stroke="none" fill="#5dcbfb" fill-rule="evenodd"></path><path id="path1" d="M18.800 79.864 C 17.824 81.388,14.509 91.012,13.272 95.914 C 10.608 106.477,9.678 125.555,11.253 137.354 C 11.495 139.173,11.877 142.062,12.101 143.774 C 12.324 145.486,12.746 147.938,13.037 149.222 C 13.328 150.506,13.778 152.651,14.035 153.988 L 14.503 156.420 199.844 156.420 L 385.184 156.420 385.573 154.961 C 386.399 151.862,387.488 146.769,387.883 144.163 C 389.675 132.329,389.683 132.219,389.676 120.428 C 389.666 104.049,388.036 95.170,382.587 81.809 L 381.595 79.377 200.354 79.377 C 55.786 79.377,19.049 79.476,18.800 79.864 M68.107 237.587 C 70.310 239.845,87.109 255.448,90.243 258.148 C 91.222 258.992,93.431 261.006,95.151 262.623 C 96.870 264.241,101.156 268.103,104.673 271.206 C 108.191 274.309,112.036 277.739,113.219 278.827 C 114.402 279.915,117.440 282.592,119.970 284.777 C 122.501 286.962,125.127 289.251,125.807 289.863 C 126.487 290.476,128.456 292.176,130.184 293.640 C 136.681 299.149,143.872 305.422,145.946 307.393 C 146.510 307.928,147.940 309.277,149.125 310.392 L 151.279 312.417 199.612 312.425 L 247.944 312.432 251.307 309.225 C 255.354 305.366,258.038 302.888,260.086 301.121 C 260.925 300.398,262.070 299.368,262.632 298.833 C 263.194 298.298,265.218 296.459,267.131 294.747 C 269.043 293.035,272.537 289.878,274.896 287.732 C 277.254 285.586,280.759 282.453,282.685 280.771 C 284.611 279.088,287.150 276.807,288.327 275.703 C 289.504 274.599,293.619 270.837,297.471 267.343 C 301.323 263.848,305.613 259.911,307.004 258.593 C 308.395 257.275,311.459 254.467,313.813 252.352 C 320.448 246.393,331.128 236.161,331.128 235.765 C 331.128 235.550,278.542 235.409,198.554 235.409 L 65.980 235.409 68.107 237.587 " stroke="none" fill="#f3a4b4" fill-rule="evenodd"></path><path id="path2" d="M0.000 194.553 L 0.000 389.105 200.000 389.105 L 400.000 389.105 400.000 194.553 L 400.000 0.000 200.000 0.000 L 0.000 0.000 0.000 194.553 M308.171 20.762 C 318.807 23.068,322.940 24.185,324.266 25.114 C 324.712 25.426,325.310 25.681,325.597 25.681 C 327.669 25.681,347.108 35.914,348.833 37.913 C 349.047 38.161,350.447 39.221,351.946 40.269 C 359.389 45.474,370.896 58.586,376.367 68.098 C 382.737 79.171,386.355 88.527,388.328 99.027 C 388.771 101.381,389.297 103.925,389.498 104.681 C 390.641 108.979,390.886 128.117,389.869 133.658 C 389.673 134.728,389.235 137.967,388.897 140.856 C 388.296 145.990,387.457 150.580,386.764 152.529 C 386.573 153.064,386.228 154.246,385.995 155.156 L 385.573 156.809 199.805 156.809 L 14.038 156.809 13.684 155.350 C 13.374 154.070,11.169 141.486,10.702 138.327 C 9.426 129.707,9.842 110.180,11.499 100.939 C 12.986 92.648,18.028 78.811,22.474 70.819 C 28.757 59.526,43.406 43.196,51.649 38.297 C 52.342 37.886,54.356 36.563,56.124 35.359 C 61.808 31.487,71.296 26.920,77.821 24.915 C 80.068 24.225,83.015 23.320,84.370 22.904 C 93.189 20.198,113.668 18.906,123.708 20.422 C 131.808 21.645,143.668 25.078,150.195 28.089 C 165.130 34.979,176.333 43.578,187.500 56.725 C 190.027 59.700,195.802 68.352,198.075 72.568 C 200.471 77.014,199.902 77.052,202.448 72.276 C 203.617 70.083,204.979 67.543,205.473 66.632 C 210.344 57.662,223.764 43.717,234.662 36.301 C 242.988 30.635,259.813 23.127,266.830 21.947 C 271.401 21.177,272.894 20.890,274.972 20.382 C 281.293 18.835,300.283 19.052,308.171 20.762 M332.143 235.087 C 332.458 235.597,322.597 245.345,314.981 252.052 C 312.412 254.314,309.698 256.797,308.949 257.569 C 308.200 258.342,306.800 259.654,305.837 260.484 C 304.874 261.315,302.247 263.693,300.000 265.770 C 292.021 273.142,287.060 277.649,285.080 279.324 C 283.102 280.998,280.740 283.128,272.033 291.089 C 269.599 293.315,266.709 295.920,265.613 296.878 C 252.928 307.956,231.808 329.272,229.377 333.448 C 229.163 333.816,228.075 335.158,226.959 336.431 C 221.033 343.189,212.382 354.757,205.411 365.244 C 200.610 372.467,201.036 372.304,198.084 368.045 C 196.757 366.128,194.932 363.648,194.030 362.533 C 193.128 361.418,191.320 359.018,190.012 357.198 C 188.704 355.379,186.566 352.616,185.260 351.058 C 183.955 349.500,182.199 347.311,181.359 346.194 C 180.519 345.077,179.119 343.400,178.247 342.466 C 177.376 341.532,175.394 339.256,173.841 337.408 C 166.087 328.173,148.800 310.512,140.852 303.702 C 138.607 301.779,135.616 299.153,134.206 297.866 C 132.796 296.578,130.607 294.705,129.342 293.702 C 128.078 292.700,125.992 290.892,124.708 289.686 C 123.424 288.479,121.180 286.525,119.721 285.343 C 118.262 284.161,115.811 282.009,114.273 280.562 C 112.736 279.115,110.253 276.905,108.755 275.652 C 107.257 274.398,105.156 272.513,104.086 271.463 C 103.016 270.412,101.177 268.750,100.000 267.770 C 98.823 266.790,96.188 264.404,94.145 262.469 C 92.101 260.533,86.964 255.807,82.728 251.966 C 71.092 241.414,65.189 235.627,65.518 235.094 C 65.932 234.425,331.730 234.419,332.143 235.087 " stroke="none" fill="#f6f6f6" fill-rule="evenodd"></path><path id="path3" d="M281.323 19.535 C 279.076 19.685,276.274 20.082,275.097 20.417 L 272.957 21.026 274.708 20.816 C 281.004 20.063,284.240 19.865,290.272 19.865 C 294.018 19.865,298.658 20.028,300.584 20.228 C 302.510 20.427,305.049 20.685,306.226 20.801 L 308.366 21.012 306.226 20.408 C 303.644 19.680,287.565 19.116,281.323 19.535 M97.082 20.416 C 92.012 20.989,88.144 21.748,84.340 22.914 C 83.002 23.324,80.068 24.225,77.821 24.915 C 71.296 26.920,61.808 31.487,56.124 35.359 C 54.356 36.563,52.342 37.886,51.649 38.297 C 45.262 42.093,32.919 54.904,26.608 64.287 C 23.551 68.833,18.677 77.714,18.677 78.740 C 18.677 78.876,100.360 78.988,200.195 78.988 C 323.575 78.988,381.712 78.861,381.712 78.591 C 381.712 78.026,378.884 72.473,376.372 68.106 C 374.141 64.228,372.918 62.418,369.098 57.341 C 366.052 53.293,355.379 42.670,351.946 40.269 C 350.447 39.221,349.047 38.161,348.833 37.913 C 347.509 36.379,333.530 28.609,330.739 27.856 C 330.204 27.712,331.955 28.704,334.630 30.061 C 350.809 38.269,363.530 49.484,373.312 64.162 C 376.905 69.554,381.076 77.280,380.792 78.019 C 380.594 78.533,359.887 78.589,200.304 78.502 L 20.039 78.405 20.113 77.325 C 20.271 75.044,27.234 63.520,32.013 57.631 C 46.257 40.078,65.713 27.762,87.129 22.741 C 89.393 22.210,91.595 21.685,92.023 21.573 C 93.960 21.068,104.984 20.243,109.855 20.238 C 146.660 20.204,180.262 40.378,197.665 72.957 C 200.231 77.760,199.890 77.825,203.117 71.918 C 216.689 47.073,238.869 29.857,266.732 22.540 C 269.362 21.849,270.286 21.500,269.128 21.632 C 259.651 22.719,241.344 31.061,230.785 39.105 C 221.125 46.464,209.645 58.949,205.473 66.632 C 204.979 67.543,203.617 70.083,202.448 72.276 C 199.902 77.052,200.471 77.014,198.075 72.568 C 187.604 53.146,170.926 37.652,150.195 28.089 C 143.675 25.081,132.187 21.752,123.708 20.413 C 120.468 19.901,101.617 19.904,97.082 20.416 M309.533 21.441 C 310.175 21.640,312.206 22.145,314.047 22.563 C 316.795 23.186,320.694 24.311,324.486 25.573 C 324.831 25.688,324.739 25.508,324.277 25.162 C 323.293 24.424,319.186 23.189,313.619 21.958 C 309.478 21.042,307.401 20.779,309.533 21.441 M327.190 26.700 C 328.342 27.226,329.373 27.566,329.483 27.456 C 329.718 27.221,326.213 25.666,325.551 25.713 C 325.302 25.730,326.039 26.175,327.190 26.700 M152.021 312.724 C 150.994 312.990,151.092 313.118,156.642 318.760 C 162.738 324.957,169.972 332.799,173.841 337.408 C 175.394 339.256,177.376 341.532,178.247 342.466 C 179.119 343.400,180.519 345.077,181.359 346.194 C 182.199 347.311,183.955 349.500,185.260 351.058 C 186.566 352.616,188.704 355.379,190.012 357.198 C 191.320 359.018,193.128 361.418,194.030 362.533 C 194.932 363.648,196.757 366.128,198.084 368.045 C 201.036 372.304,200.610 372.467,205.411 365.244 C 216.466 348.613,230.324 331.370,243.557 317.780 C 247.099 314.142,247.911 313.111,247.459 312.825 C 246.885 312.462,153.414 312.363,152.021 312.724 M246.434 313.521 C 246.530 313.682,243.979 316.615,240.764 320.039 C 227.912 333.726,215.822 348.859,205.046 364.748 C 200.774 371.047,200.658 371.114,198.833 368.388 C 189.986 355.176,172.648 334.381,157.718 319.076 C 154.901 316.188,152.679 313.691,152.780 313.527 C 153.018 313.142,246.201 313.136,246.434 313.521 " stroke="none" fill="#b3cee7" fill-rule="evenodd"></path><path id="path4" d="M17.177 82.004 C 16.087 84.749,15.277 87.218,12.881 95.102 C 11.151 100.794,9.922 110.830,9.922 119.261 C 9.922 124.542,10.403 136.312,10.702 138.327 C 11.169 141.486,13.374 154.070,13.684 155.350 L 14.038 156.809 199.805 156.809 L 385.573 156.809 385.995 155.156 C 386.228 154.246,386.573 153.064,386.764 152.529 C 387.457 150.580,388.296 145.990,388.897 140.856 C 389.235 137.967,389.673 134.728,389.869 133.658 C 390.886 128.117,390.641 108.979,389.498 104.681 C 389.297 103.925,388.771 101.381,388.328 99.027 C 387.108 92.531,386.102 89.025,383.954 83.775 L 381.996 78.988 200.186 78.988 L 18.375 78.988 17.177 82.004 M382.587 81.809 C 388.036 95.170,389.666 104.049,389.676 120.428 C 389.683 132.219,389.675 132.329,387.883 144.163 C 387.488 146.769,386.399 151.862,385.573 154.961 L 385.184 156.420 199.844 156.420 L 14.503 156.420 14.035 153.988 C 13.778 152.651,13.328 150.506,13.037 149.222 C 12.746 147.938,12.324 145.486,12.101 143.774 C 11.877 142.062,11.495 139.173,11.253 137.354 C 9.678 125.555,10.608 106.477,13.272 95.914 C 14.509 91.012,17.824 81.388,18.800 79.864 C 19.049 79.476,55.786 79.377,200.354 79.377 L 381.595 79.377 382.587 81.809 M65.518 235.094 C 65.189 235.627,71.092 241.414,82.728 251.966 C 86.964 255.807,92.101 260.533,94.145 262.469 C 96.188 264.404,98.823 266.790,100.000 267.770 C 101.177 268.750,103.016 270.412,104.086 271.463 C 105.156 272.513,107.257 274.398,108.755 275.652 C 110.253 276.905,112.736 279.115,114.273 280.562 C 115.811 282.009,118.262 284.161,119.721 285.343 C 121.180 286.525,123.424 288.479,124.708 289.686 C 125.992 290.892,128.078 292.700,129.342 293.702 C 130.607 294.705,132.796 296.578,134.206 297.866 C 135.616 299.153,138.521 301.726,140.661 303.583 C 142.802 305.441,146.034 308.345,147.845 310.037 C 150.219 312.255,151.345 313.059,151.882 312.919 C 152.542 312.746,152.513 312.676,151.621 312.296 C 151.068 312.060,149.333 310.642,147.765 309.144 C 143.901 305.452,138.520 300.708,130.184 293.640 C 128.456 292.176,126.487 290.476,125.807 289.863 C 125.127 289.251,122.501 286.962,119.970 284.777 C 117.440 282.592,114.402 279.915,113.219 278.827 C 112.036 277.739,108.191 274.309,104.673 271.206 C 101.156 268.103,96.870 264.241,95.151 262.623 C 93.431 261.006,91.222 258.992,90.243 258.148 C 87.109 255.448,70.310 239.845,68.107 237.587 L 65.980 235.409 198.554 235.409 C 278.542 235.409,331.128 235.550,331.128 235.765 C 331.128 236.161,320.448 246.393,313.813 252.352 C 311.459 254.467,308.395 257.275,307.004 258.593 C 305.613 259.911,301.323 263.848,297.471 267.343 C 293.619 270.837,289.504 274.599,288.327 275.703 C 287.150 276.807,284.611 279.088,282.685 280.771 C 280.759 282.453,277.169 285.660,274.708 287.896 C 272.247 290.132,269.255 292.851,268.058 293.938 C 266.862 295.025,264.415 297.228,262.621 298.833 C 256.516 304.295,255.473 305.252,252.023 308.560 C 250.125 310.379,248.194 312.080,247.730 312.340 C 246.963 312.770,246.954 312.814,247.627 312.827 C 248.043 312.834,249.914 311.335,251.907 309.396 C 255.183 306.208,260.811 301.067,265.613 296.877 C 266.709 295.919,269.599 293.315,272.033 291.089 C 280.740 283.128,283.102 280.998,285.080 279.324 C 287.060 277.649,292.021 273.142,300.000 265.770 C 302.247 263.693,304.874 261.315,305.837 260.484 C 306.800 259.654,308.200 258.342,308.949 257.569 C 309.698 256.797,312.412 254.314,314.981 252.052 C 322.597 245.345,332.458 235.597,332.143 235.087 C 331.730 234.419,65.932 234.425,65.518 235.094 " stroke="none" fill="#ecc4cc" fill-rule="evenodd"></path></g></svg>